<svg width="113" height="110" viewBox="0 0 113 110" fill="none" xmlns="http://www.w3.org/2000/svg">
<g clip-path="url(#clip0_2021_44112)">
<path d="M112.654 89.9733L109.857 87.9996L110.076 84.1137C110.082 84.0335 110.064 83.9531 110.024 83.883C109.985 83.8154 109.93 83.7588 109.863 83.719C109.794 83.6783 109.714 83.6586 109.634 83.6626C109.553 83.6635 109.474 83.6865 109.405 83.7293L106.11 85.8618L102.991 84.4675C102.919 84.4314 102.838 84.4171 102.757 84.4265C102.675 84.4373 102.597 84.4711 102.534 84.5238C102.471 84.574 102.426 84.642 102.404 84.7187C102.381 84.7973 102.381 84.8809 102.404 84.9596L103.443 88.7327L100.642 91.4548C100.584 91.5144 100.544 91.5891 100.527 91.6701C100.504 91.7488 100.504 91.8324 100.527 91.9111C100.554 91.988 100.605 92.0545 100.673 92.1007C100.739 92.1502 100.819 92.1788 100.902 92.1828L104.764 92.4237L106.91 95.6021C106.954 95.6701 107.017 95.7236 107.092 95.7559C107.168 95.7915 107.254 95.8023 107.336 95.7866C107.419 95.7757 107.496 95.7405 107.559 95.6857C107.621 95.6308 107.665 95.5589 107.685 95.4791L108.677 91.7265L112.513 90.7012C112.592 90.6817 112.663 90.6388 112.716 90.5782C112.773 90.5207 112.811 90.4474 112.825 90.368C112.837 90.2885 112.828 90.2073 112.799 90.1322C112.764 90.069 112.714 90.0147 112.654 89.9733Z" fill="#0A1018"/>
<path d="M76.7845 7.63233L74.7054 11.5489C74.6641 11.6316 74.6462 11.7237 74.6535 11.8155C74.6623 11.91 74.7004 11.9995 74.7626 12.0718C74.8213 12.1459 74.9009 12.2012 74.9913 12.2308C75.0815 12.2552 75.1766 12.2552 75.2668 12.2308L79.5497 11.2055L82.9958 13.9276C83.0693 13.9856 83.1573 14.0228 83.2505 14.0353C83.3454 14.0434 83.4407 14.0257 83.526 13.984C83.6088 13.9393 83.6777 13.8733 83.7254 13.7929C83.773 13.7125 83.7975 13.6208 83.7963 13.5278L83.5624 9.10875L87.3775 6.71982C87.4577 6.67109 87.5211 6.59962 87.5595 6.51477C87.6016 6.43248 87.6161 6.33915 87.601 6.24819C87.5891 6.15733 87.5509 6.07179 87.491 6.00178C87.4311 5.93178 87.352 5.88028 87.2632 5.85345L83.5312 4.65386L82.4085 0.357899C82.3877 0.269453 82.3407 0.189131 82.2734 0.127208C82.1708 0.0385488 82.0371 -0.00683584 81.901 0.000835663C81.7649 0.00850717 81.6373 0.0686207 81.5457 0.16822L78.7077 3.6132L74.8094 3.16207C74.7172 3.1479 74.6228 3.16222 74.5391 3.20308C74.455 3.23928 74.3842 3.30013 74.3364 3.37738C74.287 3.45599 74.26 3.54634 74.2584 3.63883C74.2578 3.73165 74.2849 3.82259 74.3364 3.90028L76.7845 7.63233Z" fill="#0A1018"/>
<path d="M111.426 28.3621L109.451 26.0552L110.532 23.21C110.551 23.1498 110.551 23.0857 110.532 23.0255C110.52 22.9649 110.489 22.9096 110.444 22.8665C110.401 22.8206 110.345 22.7884 110.283 22.7743C110.222 22.7591 110.157 22.7591 110.096 22.7743L107.58 23.6509L105.184 21.7695C105.134 21.7327 105.075 21.7097 105.012 21.7028C104.953 21.685 104.89 21.685 104.831 21.7028C104.774 21.729 104.725 21.7697 104.69 21.8207C104.658 21.8738 104.639 21.9334 104.633 21.995L104.529 25.0145L102.226 26.3474C102.17 26.3768 102.124 26.4236 102.097 26.4807C102.065 26.5351 102.051 26.5976 102.055 26.6601C102.061 26.7217 102.084 26.7803 102.123 26.8293C102.161 26.8797 102.214 26.9187 102.273 26.9421L105.174 27.9674L105.667 30.9407C105.678 31.005 105.709 31.0643 105.756 31.1099C105.798 31.1574 105.854 31.1912 105.916 31.2068C105.978 31.2224 106.044 31.219 106.104 31.197C106.166 31.1784 106.221 31.1407 106.26 31.0894L108.147 28.8132L111.156 28.8953C111.221 28.8959 111.284 28.8781 111.338 28.844C111.394 28.813 111.439 28.7667 111.468 28.7107C111.494 28.6509 111.505 28.5858 111.499 28.521C111.488 28.4632 111.463 28.4089 111.426 28.3621Z" fill="#0A1018"/>
<path d="M28.4974 107.863C28.5472 107.897 28.6048 107.917 28.6645 107.921C28.7243 107.92 28.7823 107.902 28.8316 107.869C28.881 107.836 28.9195 107.79 28.9427 107.735C28.9679 107.682 28.975 107.622 28.9631 107.563L28.4343 104.779L30.6379 102.97C30.6845 102.932 30.7175 102.881 30.7321 102.823C30.7515 102.768 30.753 102.708 30.7362 102.651C30.7215 102.594 30.689 102.543 30.6433 102.505C30.5965 102.47 30.5396 102.45 30.4811 102.449L28.0253 101.981L26.9461 99.3419C26.9263 99.2883 26.8904 99.2418 26.8433 99.2088C26.7965 99.1736 26.7397 99.154 26.6811 99.1528C26.623 99.1451 26.564 99.155 26.512 99.1811C26.4603 99.2072 26.4165 99.2463 26.3851 99.2946L24.8909 101.695L22.3951 101.712C22.3368 101.711 22.2795 101.727 22.2309 101.758C22.1809 101.789 22.1409 101.834 22.1154 101.886C22.0915 101.94 22.0828 101.998 22.09 102.057C22.0981 102.115 22.1229 102.171 22.1615 102.217L24.0353 104.398L23.0568 107.042C23.037 107.098 23.0333 107.159 23.0462 107.217C23.0592 107.275 23.0885 107.329 23.1308 107.371C23.1743 107.414 23.2297 107.442 23.2896 107.453C23.3499 107.468 23.4133 107.463 23.4702 107.44L26.0771 106.442L28.4974 107.863Z" fill="#0A1018"/>
<path d="M13.0562 18.252C13.1137 18.2701 13.1755 18.2701 13.233 18.252C13.2912 18.2359 13.3432 18.2028 13.3822 18.1571C13.4211 18.1113 13.4452 18.0551 13.4513 17.9957L13.7527 15.1864L16.3984 14.0637C16.4524 14.0381 16.4989 13.9992 16.5335 13.951C16.5663 13.9023 16.5843 13.8453 16.5855 13.7869C16.5862 13.7289 16.5699 13.672 16.5387 13.6229C16.5088 13.5712 16.4634 13.53 16.4088 13.505L14.1842 12.3823L13.9139 9.56783C13.9099 9.50985 13.8881 9.45444 13.8515 9.40891C13.8164 9.36357 13.7698 9.32819 13.7164 9.30638C13.6602 9.2911 13.601 9.2911 13.5448 9.30638C13.4877 9.31747 13.4342 9.3421 13.3889 9.37815L11.2422 11.2442L8.83567 10.5777C8.77996 10.5597 8.71987 10.5597 8.66415 10.5777C8.60769 10.5973 8.55624 10.6288 8.51341 10.67C8.4759 10.7161 8.45086 10.7707 8.44065 10.8289C8.42275 10.8839 8.42275 10.9431 8.44065 10.9981L9.60494 13.5972L7.92087 15.8529C7.88584 15.9012 7.86433 15.9578 7.8585 16.0169C7.85352 16.0779 7.86807 16.1388 7.90008 16.1912C7.93063 16.2418 7.97351 16.2841 8.02483 16.3142C8.07992 16.3398 8.14092 16.3504 8.20155 16.345L11.0031 16.1041L12.8951 18.1546C12.9371 18.203 12.9935 18.2371 13.0562 18.252Z" fill="#0A1018"/>
<path d="M11.088 84.3673L12.9852 80.3225C13.0229 80.2389 13.0373 80.1469 13.0268 80.056C13.0139 79.9647 12.9741 79.8791 12.9124 79.8099C12.8509 79.7365 12.7687 79.6826 12.6762 79.6553C12.5837 79.6279 12.485 79.6282 12.3927 79.6561L8.59311 80.6301L5.30294 77.6004C5.23639 77.5392 5.15338 77.4983 5.06384 77.4825C4.97532 77.459 4.88208 77.459 4.79356 77.4825C4.7084 77.514 4.63312 77.567 4.57525 77.6363C4.51921 77.7078 4.48334 77.7927 4.4713 77.8823L3.95152 82.2911L0.422255 83.9777C0.33781 84.0179 0.26597 84.0799 0.214346 84.1571C0.162838 84.2348 0.135717 84.3257 0.13638 84.4186C0.14077 84.5113 0.169419 84.6014 0.219543 84.68C0.267372 84.7573 0.338146 84.8181 0.422255 84.8543L4.54407 86.705L4.9235 91.1137C4.92791 91.2083 4.96454 91.2986 5.02746 91.37C5.08386 91.4442 5.16182 91.4996 5.25096 91.529C5.34236 91.557 5.44023 91.557 5.53164 91.529C5.62447 91.5097 5.7084 91.4611 5.77073 91.3905L8.80622 88.2327L13.1931 88.694C13.2941 88.7272 13.4029 88.729 13.505 88.6992C13.5901 88.6575 13.662 88.5937 13.7129 88.5146C13.7605 88.432 13.7839 88.3379 13.7805 88.2429C13.7748 88.1512 13.7443 88.0627 13.6921 87.9866L11.088 84.3673Z" fill="#0A1018"/>
<g clip-path="url(#clip1_2021_44112)">
<path d="M54.5067 67.3182C53.524 67.3182 52.5895 67.0063 51.7997 66.4155C51.6309 66.2895 51.4711 66.1516 51.3234 66.0046L44.1159 58.8365C43.6878 58.4136 43.4527 57.8468 43.4527 57.247C43.4527 56.6471 43.6878 56.0803 44.1129 55.6574C44.5409 55.2315 45.1076 54.9976 45.7105 54.9976C46.3134 54.9976 46.8831 55.2315 47.3082 55.6574L54.5097 62.8195L66.5102 46.8998C66.9353 46.3359 67.6135 46 68.3189 46C68.8103 46 69.2775 46.156 69.6724 46.4469C70.6732 47.1937 70.8752 48.6063 70.1276 49.599L58.127 65.5187C57.4006 66.4785 56.3425 67.1023 55.1488 67.2733C54.9347 67.3032 54.7207 67.3182 54.5067 67.3182Z" fill="#0A1018"/>
<path d="M57.0064 90.9873C55.3635 90.9873 53.8141 90.4444 52.5269 89.4127C52.123 89.0888 51.7522 88.7199 51.4266 88.318L46.8718 82.6795C46.3653 82.0527 45.6087 81.6928 44.8009 81.6928C44.7044 81.6928 44.6079 81.6988 44.5115 81.7078L37.2798 82.4906C37.0115 82.5206 36.7402 82.5356 36.4719 82.5356C34.8411 82.5356 33.3007 81.9957 32.0166 80.979C30.5184 79.7913 29.5779 78.0938 29.3638 76.2013C29.3036 75.6704 29.3036 75.1336 29.3638 74.6057L30.1506 67.4167C30.2471 66.5169 29.8823 65.6412 29.1739 65.0743L23.5068 60.5425C22.0146 59.3489 21.0771 57.6483 20.8691 55.7558C20.6611 53.8633 21.2067 52.0008 22.4065 50.5132C22.7321 50.1114 23.1028 49.7425 23.5068 49.4185L29.1739 44.8838C29.8853 44.3139 30.2501 43.4412 30.1506 42.5414L29.3638 35.3433C29.1498 33.4539 29.6924 31.5944 30.8892 30.1038C32.0859 28.6132 33.7921 27.6774 35.6942 27.4645C35.9565 27.4345 36.2247 27.4195 36.49 27.4195C36.7553 27.4195 37.0236 27.4345 37.2888 27.4645L44.5145 28.2473C44.6079 28.2563 44.7044 28.2623 44.8009 28.2623C45.6087 28.2623 46.3623 27.9024 46.8688 27.2755L51.4266 21.667C52.7922 19.9785 54.8329 19.0098 57.0184 19.0098C58.6462 19.0098 60.2409 19.5676 61.5099 20.5843C61.9139 20.9083 62.2786 21.2742 62.6042 21.673L67.162 27.3145C67.6685 27.9443 68.4191 28.3043 69.2209 28.3043C69.3174 28.3043 69.4169 28.2983 69.5133 28.2893L76.751 27.5065C77.0163 27.4765 77.2846 27.4615 77.5468 27.4615C79.1867 27.4615 80.7301 28.0013 82.0173 29.0271C83.5124 30.2177 84.4529 31.9183 84.667 33.8138C84.7242 34.3386 84.7242 34.8695 84.667 35.3943L83.8832 42.5834C83.7867 43.4831 84.1515 44.3559 84.8599 44.9228L90.5301 49.4605C92.0252 50.6542 92.9597 52.3577 93.1677 54.2532C93.3757 56.1487 92.8271 58.0112 91.6243 59.4958C91.3048 59.8947 90.937 60.2606 90.5331 60.5845L84.8358 65.1043C84.1304 65.6681 83.7687 66.5409 83.8651 67.4437L84.6519 74.6417C84.8629 76.5282 84.3233 78.3907 83.1266 79.8813C81.9298 81.3719 80.2237 82.3076 78.3215 82.5206C78.0563 82.5506 77.791 82.5656 77.5227 82.5656C77.2574 82.5656 76.9922 82.5506 76.7299 82.5236L69.4982 81.7408C69.3958 81.7288 69.2963 81.7228 69.1968 81.7228C68.398 81.7228 67.6504 82.0827 67.147 82.7095L62.6042 88.333C61.4044 89.8206 59.6953 90.7504 57.7931 90.9573C57.5309 90.9723 57.2686 90.9873 57.0064 90.9873ZM44.8099 77.194C46.9924 77.194 49.0271 78.1658 50.3957 79.8633L54.9505 85.5018C55.0711 85.6517 55.2067 85.7867 55.3575 85.9037C55.8368 86.2846 56.4065 86.4885 57.0064 86.4885C57.1058 86.4885 57.2023 86.4825 57.3018 86.4705C58.0072 86.3955 58.6402 86.0506 59.0803 85.5018L63.6231 79.8813C64.9886 78.1868 67.0204 77.212 69.1998 77.212C69.4621 77.212 69.7243 77.227 69.9896 77.254L77.2243 78.0368C77.3268 78.0488 77.4293 78.0548 77.5318 78.0548C77.6252 78.0548 77.7187 78.0488 77.8121 78.0398C78.5205 77.9618 79.1505 77.6139 79.5936 77.0621C80.0368 76.5102 80.2357 75.8234 80.1573 75.1246L79.3706 67.9175C79.1053 65.4822 80.094 63.1158 82.0112 61.5832L87.7055 57.0635C87.8472 56.9495 87.9829 56.8175 88.1004 56.6706C88.5466 56.1187 88.7515 55.4289 88.6732 54.7301C88.5978 54.0283 88.2511 53.4015 87.6995 52.9576L82.0293 48.4228C80.1121 46.8932 79.1234 44.5239 79.3887 42.0915L80.1754 34.8935C80.1995 34.6955 80.1995 34.5006 80.1754 34.3086C80.0971 33.6068 79.7474 32.977 79.1957 32.5361C78.7225 32.1552 78.1497 31.9573 77.5468 31.9573C77.4473 31.9573 77.3479 31.9633 77.2484 31.9723L70.0077 32.755C69.7454 32.782 69.4862 32.797 69.2269 32.797C67.0445 32.797 65.0097 31.8253 63.6412 30.1278L59.0863 24.4893C58.9658 24.3423 58.8301 24.2074 58.6824 24.0874C58.2091 23.7065 57.6334 23.5055 57.0244 23.5055C56.2136 23.5055 55.4599 23.8655 54.9535 24.4893L50.3957 30.0978C49.0241 31.7923 46.9924 32.764 44.8159 32.764C44.5567 32.764 44.2944 32.749 44.0292 32.7221L36.7945 31.9393C36.692 31.9273 36.5925 31.9213 36.493 31.9213C36.3935 31.9213 36.2941 31.9273 36.1946 31.9363C35.4952 32.0142 34.8652 32.3622 34.4221 32.911C33.982 33.4599 33.78 34.1497 33.8584 34.8485L34.6452 42.0525C34.9104 44.4879 33.9217 46.8542 32.0045 48.3868L26.3404 52.9186C26.1896 53.0386 26.054 53.1735 25.9334 53.3235C25.017 54.4572 25.2009 56.1217 26.3404 57.0305L32.0075 61.5623C33.9247 63.0948 34.9135 65.4642 34.6482 67.8965L33.8614 75.0946C33.8373 75.2985 33.8373 75.4965 33.8614 75.6914C33.9398 76.3902 34.2895 77.0171 34.8411 77.455C35.3144 77.8299 35.8841 78.0308 36.484 78.0308C36.5835 78.0308 36.6859 78.0248 36.7884 78.0128L44.0292 77.23C44.2914 77.209 44.5537 77.194 44.8099 77.194Z" fill="#0A1018"/>
</g>
</g>
<defs>
<clipPath id="clip0_2021_44112">
<rect width="112.727" height="110" fill="white" transform="translate(0.136368)"/>
</clipPath>
<clipPath id="clip1_2021_44112">
<rect width="72.3468" height="71.9805" fill="white" transform="translate(20.8443 19.0039)"/>
</clipPath>
</defs>
</svg>
