<svg width="60" height="35" viewBox="0 0 60 35" fill="none" xmlns="http://www.w3.org/2000/svg">
<rect width="60" height="35" rx="4" fill="#EF3466"/>
<path fill-rule="evenodd" clip-rule="evenodd" d="M20.1898 7C18.9969 7 18.0298 8.00736 18.0298 9.25V25.75C18.0298 26.9926 18.9969 28 20.1898 28H39.8098C41.0027 28 41.9698 26.9926 41.9698 25.75V9.25C41.9698 8.00736 41.0027 7 39.8098 7H20.1898ZM19.4698 9.25C19.4698 8.83579 19.7921 8.5 20.1898 8.5H39.8098C40.2074 8.5 40.5298 8.83579 40.5298 9.25V13H19.4698V9.25ZM19.4698 14.5V25.75C19.4698 26.1642 19.7921 26.5 20.1898 26.5H39.8098C40.2074 26.5 40.5298 26.1642 40.5298 25.75V14.5H19.4698ZM26.9998 16C27.3974 16 27.7198 16.3358 27.7198 16.75V17.2945C28.5145 16.5292 29.572 16.0544 30.7174 16.0008C30.7282 16.0003 30.7389 16 30.7497 16C32.8137 15.9999 34.6352 17.4293 35.1062 19.4915C35.5786 21.5602 34.5524 23.6567 32.68 24.559C30.815 25.4576 28.5699 24.9536 27.265 23.3184C27.0109 22.9999 27.0527 22.527 27.3585 22.2622C27.6643 21.9975 28.1182 22.041 28.3724 22.3596C29.25 23.4593 30.7883 23.8178 32.0754 23.1976C33.355 22.581 34.0119 21.1811 33.7053 19.8387C33.3984 18.4949 32.1937 17.5074 30.7659 17.5C29.6863 17.5559 28.7465 18.1389 28.2081 19H29.3438C29.7414 19 30.0638 19.3358 30.0638 19.75C30.0638 20.1642 29.7414 20.5 29.3438 20.5H27.1339C27.1235 20.5002 27.1131 20.5002 27.1027 20.5H26.9998C26.6021 20.5 26.2798 20.1642 26.2798 19.75V16.75C26.2798 16.3358 26.6021 16 26.9998 16Z" fill="white"/>
</svg>
