<svg width="60" height="35" viewBox="0 0 60 35" fill="none" xmlns="http://www.w3.org/2000/svg">
<rect width="60" height="35" rx="4" fill="#EF3466"/>
<g clip-path="url(#clip0_984_1963)">
<g clip-path="url(#clip1_984_1963)">
<path d="M41.5009 12.4799C40.8385 11.3663 39.1873 9.73434 35.0689 8.21754C30.4801 6.52794 27.7633 6.90234 26.5537 7.27674C26.139 7.43912 25.7677 7.69544 25.4689 8.02554L18.6913 16.4639C18.2424 16.9265 17.994 17.5474 18.0001 18.1919V26.9567C17.9927 27.3 18.0582 27.6409 18.1923 27.9569C18.3263 28.273 18.5258 28.557 18.7777 28.7903C19.05 29.0075 19.3894 29.1229 19.7377 29.1167C19.9131 29.1137 20.0873 29.0879 20.2561 29.0399L23.7601 28.1567C24.3649 28.0031 38.7169 24.3935 40.1377 23.9519C40.61 23.8334 41.03 23.562 41.3321 23.18C41.6342 22.7981 41.8015 22.3269 41.8081 21.8399L41.8849 13.8143C41.8541 13.3471 41.7231 12.8921 41.5009 12.4799ZM19.4977 18.6911L40.3393 13.6799C40.3447 13.7438 40.3447 13.8081 40.3393 13.8719V17.4911C39.1698 17.0517 37.9072 16.9195 36.6721 17.1071C35.6663 17.4229 34.7621 17.9992 34.0513 18.7775C33.6364 19.2367 33.1294 19.603 32.5633 19.8527C31.9116 19.9386 31.2488 19.8491 30.6433 19.5935C29.6979 19.2174 28.6621 19.1305 27.6673 19.3439C26.8396 19.6795 26.1028 20.2058 25.5169 20.8799C24.9799 21.5316 24.2667 22.0148 23.4625 22.2719C22.1191 22.3821 20.767 22.2355 19.4785 21.8399L19.4977 18.6911ZM26.5825 9.02394C26.7031 8.90192 26.8386 8.79549 26.9857 8.70714C27.8209 8.44794 30.2209 8.03514 34.5505 9.66714C36.3382 10.2422 37.9976 11.1583 39.4369 12.3647L20.1793 16.9823L26.5825 9.02394ZM39.6865 22.5119C38.2945 22.9535 23.5201 26.6687 23.3665 26.7071L19.9201 27.5903C19.5361 27.6959 19.5361 27.2831 19.5361 26.9567V23.3471C20.5714 23.6178 21.6343 23.7692 22.7041 23.7983C23.0583 23.7984 23.4117 23.7663 23.7601 23.7023C24.8574 23.4016 25.838 22.7758 26.5729 21.9071C27.002 21.4064 27.5363 21.0065 28.1377 20.7359C28.8458 20.6284 29.5699 20.7181 30.2305 20.9951C31.1051 21.3442 32.0625 21.4309 32.9857 21.2447C33.7775 20.9425 34.4876 20.4592 35.0593 19.8335C35.5756 19.2396 36.2371 18.7898 36.9793 18.5279C38.1045 18.4138 39.2404 18.5855 40.2817 19.0271V21.8495C40.2913 21.9935 40.2337 22.3199 39.6865 22.5119Z" fill="white"/>
</g>
</g>
<defs>
<clipPath id="clip0_984_1963">
<rect width="24" height="24" fill="white" transform="translate(18 6)"/>
</clipPath>
<clipPath id="clip1_984_1963">
<rect width="23.8656" height="22.1568" fill="white" transform="translate(18 6.96002)"/>
</clipPath>
</defs>
</svg>
