<svg width="60" height="35" viewBox="0 0 60 35" fill="none" xmlns="http://www.w3.org/2000/svg">
<rect width="60" height="35" rx="4" fill="#EF3466"/>
<path d="M35.1165 23.1553H24.4989C24.2876 23.1553 24.085 23.2393 23.9355 23.3887C23.7861 23.5381 23.7021 23.7408 23.7021 23.9521C23.7021 24.1634 23.7861 24.3661 23.9355 24.5155C24.085 24.665 24.2876 24.7489 24.4989 24.7489H35.1165C35.3279 24.7489 35.5305 24.665 35.68 24.5155C35.8294 24.3661 35.9133 24.1634 35.9133 23.9521C35.9133 23.7408 35.8294 23.5381 35.68 23.3887C35.5305 23.2393 35.3279 23.1553 35.1165 23.1553Z" fill="white"/>
<path d="M35.1168 19.8239H24.4992C24.2895 19.8264 24.0893 19.9115 23.9419 20.0607C23.7946 20.2098 23.712 20.411 23.712 20.6207C23.7107 20.7254 23.7301 20.8292 23.7689 20.9264C23.8078 21.0235 23.8654 21.1121 23.9385 21.187C24.0116 21.2618 24.0988 21.3216 24.195 21.3628C24.2912 21.404 24.3945 21.4259 24.4992 21.4271H35.1168C35.2214 21.4259 35.3248 21.404 35.421 21.3628C35.5172 21.3216 35.6043 21.2618 35.6774 21.187C35.7505 21.1121 35.8081 21.0235 35.847 20.9264C35.8859 20.8292 35.9052 20.7254 35.904 20.6207C35.904 20.411 35.8214 20.2098 35.674 20.0607C35.5266 19.9115 35.3264 19.8264 35.1168 19.8239V19.8239Z" fill="white"/>
<path d="M39.4944 15.1776C39.4809 15.0496 39.4346 14.9273 39.36 14.8224L32.0352 6.4224C31.9322 6.29386 31.7851 6.2083 31.6224 6.1824C31.0233 6.07438 30.4166 6.0134 29.808 6C27.2807 6.00847 24.7578 6.21389 22.2624 6.6144C21.8224 6.6863 21.4177 6.89939 21.1095 7.2215C20.8012 7.54361 20.6061 7.95726 20.5536 8.4C20.1266 11.5177 19.9149 14.6612 19.92 17.808C19.9149 20.9548 20.1266 24.0983 20.5536 27.216C20.5982 27.6656 20.7898 28.088 21.0987 28.4178C21.4076 28.7475 21.8166 28.9662 22.2624 29.04C24.7573 29.4451 27.2805 29.6506 29.808 29.6544C32.3355 29.6506 34.8588 29.4451 37.3536 29.04C37.793 28.9666 38.1968 28.7531 38.5048 28.4312C38.8128 28.1094 39.0084 27.6966 39.0624 27.2544C39.4894 24.1367 39.7011 20.9932 39.696 17.8464C39.7026 16.9528 39.6352 16.0601 39.4944 15.1776ZM32.2656 9.1008L36.9504 14.4192H32.736C32.673 14.4206 32.6105 14.409 32.5521 14.3852C32.4938 14.3615 32.441 14.326 32.3969 14.281C32.3528 14.2361 32.3184 14.1825 32.2958 14.1237C32.2733 14.0649 32.263 14.0021 32.2656 13.9392V9.1008ZM37.4784 27.0048C37.4633 27.1068 37.4176 27.2018 37.3473 27.2772C37.277 27.3527 37.1855 27.405 37.0848 27.4272C34.6785 27.8145 32.2453 28.0104 29.808 28.0128C27.3676 28.01 24.9312 27.8142 22.5216 27.4272C22.4194 27.4102 22.326 27.3593 22.2563 27.2826C22.1867 27.206 22.1448 27.1081 22.1376 27.0048C21.7115 23.9578 21.4998 20.8846 21.504 17.808C21.4998 14.7314 21.7115 11.6582 22.1376 8.6112C22.1533 8.51094 22.198 8.41747 22.2662 8.34238C22.3345 8.2673 22.4233 8.2139 22.5216 8.1888C24.9318 7.80741 27.3678 7.61163 29.808 7.6032C30.1002 7.60294 30.392 7.62219 30.6816 7.6608V13.9392C30.6765 14.2118 30.7259 14.4826 30.827 14.7357C30.9281 14.9889 31.0787 15.2193 31.2701 15.4134C31.4615 15.6075 31.6898 15.7614 31.9416 15.866C32.1933 15.9705 32.4634 16.0237 32.736 16.0224H38.0352C38.0352 16.5504 38.112 17.1552 38.112 17.808C38.1159 20.8846 37.9042 23.9578 37.4784 27.0048V27.0048Z" fill="white"/>
</svg>
